<svg aria-hidden="true" xmlns="http://www.w3.org/2000/svg" xmlns:xlink="http://www.w3.org/1999/xlink"><symbol viewBox="0 0 262 176" id="Dot" xmlns="http://www.w3.org/2000/svg">
<ellipse opacity="0.3" cx="4.5" cy="4" rx="4.5" ry="4"/>
<ellipse opacity="0.3" cx="40.5" cy="4" rx="4.5" ry="4"/>
<circle opacity="0.3" cx="76" cy="4" r="4"/>
<circle opacity="0.3" cx="112" cy="4" r="4"/>
<circle opacity="0.3" cx="148" cy="4" r="4"/>
<circle opacity="0.3" cx="184" cy="4" r="4"/>
<circle opacity="0.3" cx="220" cy="4" r="4"/>
<circle opacity="0.3" cx="256" cy="4" r="4"/>
<ellipse opacity="0.3" cx="4.5" cy="28" rx="4.5" ry="4"/>
<ellipse opacity="0.3" cx="40.5" cy="28" rx="4.5" ry="4"/>
<circle opacity="0.3" cx="76" cy="28" r="4"/>
<circle opacity="0.3" cx="112" cy="28" r="4"/>
<circle opacity="0.3" cx="148" cy="28" r="4"/>
<circle opacity="0.3" cx="184" cy="28" r="4"/>
<circle opacity="0.3" cx="220" cy="28" r="4"/>
<circle opacity="0.3" cx="256" cy="28" r="4"/>
<ellipse opacity="0.3" cx="4.5" cy="52" rx="4.5" ry="4"/>
<ellipse opacity="0.3" cx="40.5" cy="52" rx="4.5" ry="4"/>
<circle opacity="0.3" cx="76" cy="52" r="4"/>
<circle opacity="0.3" cx="112" cy="52" r="4"/>
<circle opacity="0.3" cx="148" cy="52" r="4"/>
<circle opacity="0.3" cx="184" cy="52" r="4"/>
<circle opacity="0.3" cx="220" cy="52" r="4"/>
<circle opacity="0.3" cx="256" cy="52" r="4"/>
<ellipse opacity="0.3" cx="4.5" cy="76" rx="4.5" ry="4"/>
<ellipse opacity="0.3" cx="40.5" cy="76" rx="4.5" ry="4"/>
<circle opacity="0.3" cx="76" cy="76" r="4"/>
<circle opacity="0.3" cx="112" cy="76" r="4"/>
<circle opacity="0.3" cx="148" cy="76" r="4"/>
<circle opacity="0.3" cx="184" cy="76" r="4"/>
<circle opacity="0.3" cx="220" cy="76" r="4"/>
<circle opacity="0.3" cx="256" cy="76" r="4"/>
<ellipse opacity="0.3" cx="4.5" cy="100" rx="4.5" ry="4"/>
<ellipse opacity="0.3" cx="40.5" cy="100" rx="4.5" ry="4"/>
<circle opacity="0.3" cx="76" cy="100" r="4"/>
<circle opacity="0.3" cx="112" cy="100" r="4"/>
<circle opacity="0.3" cx="148" cy="100" r="4"/>
<circle opacity="0.3" cx="184" cy="100" r="4"/>
<circle opacity="0.3" cx="220" cy="100" r="4"/>
<circle opacity="0.3" cx="256" cy="100" r="4"/>
<ellipse opacity="0.3" cx="4.5" cy="124" rx="4.5" ry="4"/>
<ellipse opacity="0.3" cx="40.5" cy="124" rx="4.5" ry="4"/>
<circle opacity="0.3" cx="76" cy="124" r="4"/>
<circle opacity="0.3" cx="112" cy="124" r="4"/>
<circle opacity="0.3" cx="148" cy="124" r="4"/>
<circle opacity="0.3" cx="184" cy="124" r="4"/>
<circle opacity="0.3" cx="220" cy="124" r="4"/>
<circle opacity="0.3" cx="256" cy="124" r="4"/>
<ellipse opacity="0.3" cx="4.5" cy="148" rx="4.5" ry="4"/>
<ellipse opacity="0.3" cx="41.5" cy="148" rx="4.5" ry="4"/>
<circle opacity="0.3" cx="78" cy="148" r="4"/>
<circle opacity="0.3" cx="114" cy="148" r="4"/>
<circle opacity="0.3" cx="150" cy="148" r="4"/>
<circle opacity="0.3" cx="186" cy="148" r="4"/>
<circle opacity="0.3" cx="222" cy="148" r="4"/>
<circle opacity="0.3" cx="258" cy="148" r="4"/>
<ellipse opacity="0.3" cx="4.5" cy="172" rx="4.5" ry="4"/>
<ellipse opacity="0.3" cx="41.5" cy="172" rx="4.5" ry="4"/>
<circle opacity="0.3" cx="78" cy="172" r="4"/>
<circle opacity="0.3" cx="114" cy="172" r="4"/>
<circle opacity="0.3" cx="150" cy="172" r="4"/>
<circle opacity="0.3" cx="186" cy="172" r="4"/>
<circle opacity="0.3" cx="222" cy="172" r="4"/>
<circle opacity="0.3" cx="258" cy="172" r="4"/>
</symbol><symbol viewBox="0 0 25 31" id="Return" xmlns="http://www.w3.org/2000/svg">
<path d="M6.11111 30L1 24.8889L6.11111 19.7778" stroke-width="2" stroke-linecap="round" stroke-linejoin="round"/>
<path d="M24 17.2223V19.7778C24 21.1334 23.4615 22.4334 22.503 23.3919C21.5445 24.3504 20.2444 24.8889 18.8889 24.8889H1" stroke-width="2" stroke-linecap="round" stroke-linejoin="round"/>
<path d="M18.8889 1.88892L24 7.00003L18.8889 12.1111" stroke-width="2" stroke-linecap="round" stroke-linejoin="round"/>
<path d="M1 14.6667V12.1111C1 10.7556 1.53849 9.45556 2.49701 8.49704C3.45553 7.53852 4.75556 7.00003 6.11111 7.00003H24" stroke-width="2" stroke-linecap="round" stroke-linejoin="round"/>
</symbol><symbol viewBox="0 0 35 29" id="Truck" xmlns="http://www.w3.org/2000/svg">
<path d="M26.6591 27C28.6046 27 30.1818 25.4228 30.1818 23.4773C30.1818 21.5317 28.6046 19.9545 26.6591 19.9545C24.7135 19.9545 23.1364 21.5317 23.1364 23.4773C23.1364 25.4228 24.7135 27 26.6591 27Z" stroke-width="2.81818" stroke-linecap="round" stroke-linejoin="round"/>
<path d="M8.3409 27C10.2865 27 11.8636 25.4228 11.8636 23.4773C11.8636 21.5317 10.2865 19.9545 8.3409 19.9545C6.39535 19.9545 4.81818 21.5317 4.81818 23.4773C4.81818 25.4228 6.39535 27 8.3409 27Z" stroke-width="2.81818" stroke-linecap="round" stroke-linejoin="round"/>
<path d="M23.1364 8.68182H28.7727L33 12.9091V19.9546H23.1364V8.68182Z" stroke-width="2.81818" stroke-linecap="round" stroke-linejoin="round"/>
<path d="M23.1364 1.63635H2V19.9545H23.1364V1.63635Z" stroke-width="2.81818" stroke-linecap="round" stroke-linejoin="round"/>
</symbol><symbol viewBox="0 0 10 20" id="arrow_slider" xmlns="http://www.w3.org/2000/svg">
<path d="M9 18.43L1 10.1164L9 1.80273" stroke-width="2" stroke-linecap="round" stroke-linejoin="round"/>
</symbol><symbol viewBox="0 0 28 30" id="bag" xmlns="http://www.w3.org/2000/svg">
<path d="M6 2L2 7.33333V26C2 26.7072 2.28095 27.3855 2.78105 27.8856C3.28115 28.3857 3.95942 28.6667 4.66667 28.6667H23.3333C24.0406 28.6667 24.7189 28.3857 25.219 27.8856C25.719 27.3855 26 26.7072 26 26V7.33333L22 2H6Z" stroke-width="2.66667" stroke-linecap="round" stroke-linejoin="round"/>
<path d="M19.3333 12.6666C19.3333 14.0811 18.7714 15.4376 17.7712 16.4378C16.771 17.438 15.4145 17.9999 14 17.9999C12.5855 17.9999 11.229 17.438 10.2288 16.4378C9.22857 15.4376 8.66667 14.0811 8.66667 12.6666" stroke-width="2.66667" stroke-linecap="round" stroke-linejoin="round"/>
<path d="M2 7.33325H26" stroke-width="2.66667" stroke-linecap="round" stroke-linejoin="round"/>
</symbol><symbol viewBox="0 0 29 29" id="circle" xmlns="http://www.w3.org/2000/svg">
<path d="M14.5 28C21.9558 28 28 21.9558 28 14.5C28 7.04416 21.9558 1 14.5 1C7.04416 1 1 7.04416 1 14.5C1 21.9558 7.04416 28 14.5 28Z" stroke-width="2" stroke-linecap="round" stroke-linejoin="round"/>
<path d="M14.5 19.9C17.4823 19.9 19.9 17.4823 19.9 14.5C19.9 11.5177 17.4823 9.10001 14.5 9.10001C11.5176 9.10001 9.09998 11.5177 9.09998 14.5C9.09998 17.4823 11.5176 19.9 14.5 19.9Z" stroke-width="2" stroke-linecap="round" stroke-linejoin="round"/>
<path d="M18.3204 18.3204L24.0444 24.0444" stroke-width="2" stroke-linecap="round" stroke-linejoin="round"/>
<path d="M4.95557 24.0444L10.6796 18.3204" stroke-width="2" stroke-linecap="round" stroke-linejoin="round"/>
<path d="M18.3204 10.6796L24.0444 4.95557" stroke-width="2" stroke-linecap="round" stroke-linejoin="round"/>
<path d="M18.3204 10.6795L23.0859 5.91403" stroke-width="2" stroke-linecap="round" stroke-linejoin="round"/>
<path d="M4.95557 4.95557L10.6796 10.6796" stroke-width="2" stroke-linecap="round" stroke-linejoin="round"/>
</symbol><symbol viewBox="0 0 22 20" id="envelop" xmlns="http://www.w3.org/2000/svg">
<path d="M0 3.88354C0 2.10515 1.23105 0.663818 2.75 0.663818H19.25C20.7668 0.663818 22 2.10515 22 3.88354V16.7625C22 18.5383 20.7668 19.9822 19.25 19.9822H2.75C1.23105 19.9822 0 18.5383 0 16.7625V3.88354ZM2.0625 3.88354V4.99536L9.47461 12.119C10.3598 12.9742 11.6402 12.9742 12.5254 12.119L19.9375 4.99536V3.83827C19.9375 3.44083 19.6281 3.03334 19.25 3.03334H2.75C2.37016 3.03334 2.0625 3.44083 2.0625 3.83827V3.88354ZM2.0625 8.1195V16.7625C2.0625 17.2052 2.37016 17.5674 2.75 17.5674H19.25C19.6281 17.5674 19.9375 17.2052 19.9375 16.7625V8.1195L13.8359 13.9854C12.1859 15.5701 9.81406 15.5701 8.12539 13.9854L2.0625 8.1195Z"/>
</symbol><symbol viewBox="0 0 12 19" id="fb" xmlns="http://www.w3.org/2000/svg">
<path d="M10.4678 10.6875L11.001 7.24895H7.6669V5.01756C7.6669 4.07684 8.13265 3.15986 9.6259 3.15986H11.1416V0.232305C11.1416 0.232305 9.76615 0 8.45102 0C5.70527 0 3.91052 1.64691 3.91052 4.62828V7.24895H0.858398V10.6875H3.91052V19H7.6669V10.6875H10.4678Z"/>
</symbol><symbol viewBox="0 -56 1136 1136" class="gicon" id="home" xmlns="http://www.w3.org/2000/svg"><path d="M155.569231 473.206154s-42.535385 74.24 47.458461 64.590769L562.609231 178.018462l363.52 360.763076s70.695385 10.24 53.563077-52.578461-2.363077-6.892308-2.363077-6.892308L825.107692 327.286154l-3.741538-124.849231s-27.963077-57.895385-75.421539 0v49.230769l-159.507692-158.523077s-18.313846-25.796923-53.563077 3.741539S155.569231 473.206154 155.569231 473.206154z"/><path d="M993.476923 509.44c0-0.196923 0-0.196923 0 0-0.393846-9.649231-1.181538-19.101538-2.56-28.750769-1.772308-10.830769-4.726154-21.464615-7.286154-31.901539-4.529231-7.483077-10.830769-7.68-15.753846-6.498461-0.393846 0.196923-0.787692 0.196923-1.181538 0.393846-2.56 0.787692-5.12 0.196923-7.089231-1.772308l-118.153846-117.956923c-1.181538-1.181538-1.969231-2.953846-1.969231-4.726154l-3.544615-118.350769v-0.984615l-1.378462-2.756923c-0.590769-1.181538-14.966154-30.326154-42.732308-33.673847-19.298462-2.363077-38.4 8.073846-57.107692 30.72l-3.347692 4.135385v2.756923c0 2.953846-1.575385 5.316923-4.332308 6.301539-2.56 1.181538-5.513846 0.590769-7.483077-1.378462l-122.092308-121.304615c-2.756923-3.347692-11.815385-12.996923-27.175384-14.966154-14.966154-1.969231-30.72 3.741538-46.670769 17.132308C488.96 114.609231 180.184615 427.52 145.132308 462.966154l-0.787693 0.984615-1.378461 2.166154c-2.363077 4.135385-22.252308 40.369231-5.12 66.363077 11.027692 16.935385 33.476923 23.630769 66.953846 20.086154l5.12-0.590769 348.16-348.356923c2.756923-2.756923 7.089231-2.756923 9.649231 0l351.704615 348.947692 4.726154 0.787692c0.984615 0.196923 5.710769 0.787692 12.406154 0.787692 15.163077 0 36.036923-3.150769 49.230769-17.92 3.544615-3.938462 6.104615-8.467692 8.073846-13.390769-0.196923-4.726154-0.196923-9.058462-0.393846-13.390769zM198.301538 521.846154c-1.181538 1.181538-2.756923 1.969231-4.332307 1.969231-16.738462 0.984615-27.963077-1.772308-31.704616-7.68-4.529231-6.892308-0.787692-22.252308 4.923077-33.476923 0.196923-0.590769 0.590769-0.984615 1.181539-1.575385 13.981538-14.178462 340.676923-345.403077 374.153846-373.169231 9.058462-7.483077 17.526154-11.224615 24.024615-10.633846 5.316923 0.590769 8.270769 4.135385 8.467693 4.332308l157.538461 156.750769c4.726154 4.726154 11.421538 6.104615 17.526154 3.741538l0.984615 0.984616v-1.181539c6.104615-2.756923 9.649231-8.467692 9.649231-15.163077v-36.233846c0-1.772308 0.590769-3.544615 1.969231-4.726154 6.695385-7.089231 16.738462-15.36 25.796923-14.375384 8.073846 0.984615 14.375385 8.664615 17.526154 13.193846 0.787692 0.984615 1.181538 2.363077 1.181538 3.741538l3.544616 118.35077c0.196923 4.332308 1.772308 8.270769 4.923077 11.224615l149.661538 149.661538 0.590769 2.166154c3.347692 12.406154 2.756923 21.464615-1.772307 26.584616-6.695385 7.68-21.858462 8.270769-28.16 8.270769-1.772308 0-3.544615-0.787692-4.923077-1.969231l-356.43077-353.673846a16.521846 16.521846 0 0 0-23.433846 0L198.301538 521.846154z"/><path d="M895.803077 576.984615L591.163077 270.572308c-12.996923-13.193846-34.264615-13.193846-47.458462-0.196923L237.292308 574.227692c-6.301538 6.301538-10.043077 14.966154-10.043077 23.827693v267.027692c0 13.587692 8.073846 26.387692 20.873846 31.113846 6.301538 2.363077 14.572308 4.135385 25.206154 4.332308 34.067692 0.984615 242.018462 0.393846 324.332307 0.196923 18.510769 0 33.476923-15.163077 33.476924-33.673846v-248.123077c0-18.510769 14.966154-33.673846 33.673846-33.673846H756.184615c18.510769 0 33.673846 14.966154 33.673847 33.673846v248.713846c0 18.510769 14.966154 33.673846 33.673846 33.673846h45.686154c4.135385 0 8.467692-0.787692 12.20923-2.363077 8.270769-3.347692 20.873846-11.618462 24.024616-29.932308 4.135385-24.024615 1.181538-216.024615 0.196923-268.996923-0.196923-8.664615-3.741538-16.935385-9.846154-23.04z m-428.110769 166.203077h-87.433846c-18.510769 0-33.673846-14.966154-33.673847-33.673846v-90.584615c0-18.510769 14.966154-33.673846 33.673847-33.673846h87.433846c18.510769 0 33.673846 14.966154 33.673846 33.673846v90.584615c-0.196923 18.510769-15.163077 33.673846-33.673846 33.673846z"/><path d="M920.024615 586.24l-0.196923-5.907692-342.055384-343.827693c-5.710769-5.710769-14.966154-5.710769-20.676923 0L217.009231 573.636923c-2.756923 2.756923-4.332308 6.498462-4.332308 10.436923v292.627692l0.196923 1.969231c0.196923 1.378462 6.104615 35.052308 60.258462 36.627693 12.8 0.393846 50.609231 0.590769 112.443077 0.590769 105.156923 0 244.381538-0.590769 245.76-0.590769 8.073846 0 14.572308-6.498462 14.572307-14.572308V604.750769c0-2.756923 2.166154-4.923077 4.923077-4.923077h119.335385c2.756923 0 4.923077 2.166154 4.923077 4.923077v296.369231c0 8.073846 6.498462 14.572308 14.572307 14.572308h84.283077l1.969231-0.196923c1.575385-0.196923 37.218462-6.301538 43.716923-44.11077 5.12-28.947692 0.590769-274.707692 0.393846-285.144615z m-115.593846 295.384615V585.255385c0-8.073846-6.498462-14.572308-14.572307-14.572308h-158.326154c-8.073846 0-14.572308 6.498462-14.572308 14.572308v295.975384c0 2.56-2.166154 4.726154-4.726154 4.726154-70.301538 0.196923-302.276923 0.984615-338.116923 0-21.464615-0.590769-28.947692-7.483077-31.113846-10.436923-0.590769-0.787692-0.984615-1.772308-0.984615-2.953846V592.147692c0-1.378462 0.590769-2.56 1.378461-3.544615l320.590769-317.833846c1.969231-1.969231 4.923077-1.969231 6.892308 0l318.621538 320.393846c0.984615 0.984615 1.378462 2.166154 1.378462 3.347692 1.575385 85.267692 3.544615 251.667692 0 271.753846-2.363077 13.981538-13.587692 18.510769-18.116923 19.889231-0.393846 0.196923-0.787692 0.196923-1.181539 0.196923h-62.424615c-2.56 0.196923-4.726154-1.969231-4.726154-4.726154z"/><path d="M501.169231 570.683077H346.584615c-8.073846 0-14.572308 6.498462-14.572307 14.572308v157.932307c0 8.073846 6.498462 14.572308 14.572307 14.572308h154.584616c8.073846 0 14.572308-6.498462 14.572307-14.572308v-157.932307c0.196923-8.073846-6.498462-14.572308-14.572307-14.572308z m-140.012308 153.009231v-118.941539c0-2.756923 2.166154-4.923077 4.923077-4.923077h115.593846c2.756923 0 4.923077 2.166154 4.923077 4.923077v118.941539c0 2.756923-2.166154 4.923077-4.923077 4.923077h-115.593846c-2.56-0.196923-4.923077-2.363077-4.923077-4.923077z"/></symbol><symbol viewBox="0 0 16 16" id="insta" xmlns="http://www.w3.org/2000/svg">
<path d="M8.00356 3.95708C5.73214 3.95708 3.89999 5.7606 3.89999 7.99653C3.89999 10.2325 5.73214 12.036 8.00356 12.036C10.275 12.036 12.1071 10.2325 12.1071 7.99653C12.1071 5.7606 10.275 3.95708 8.00356 3.95708ZM8.00356 10.6227C6.53571 10.6227 5.33571 9.44497 5.33571 7.99653C5.33571 6.5481 6.53214 5.37036 8.00356 5.37036C9.47499 5.37036 10.6714 6.5481 10.6714 7.99653C10.6714 9.44497 9.47142 10.6227 8.00356 10.6227V10.6227ZM13.2321 3.79185C13.2321 4.31567 12.8036 4.73403 12.275 4.73403C11.7429 4.73403 11.3178 4.31216 11.3178 3.79185C11.3178 3.27153 11.7464 2.84966 12.275 2.84966C12.8036 2.84966 13.2321 3.27153 13.2321 3.79185ZM15.95 4.7481C15.8893 3.48599 15.5964 2.36802 14.6571 1.44692C13.7214 0.52583 12.5857 0.237549 11.3036 0.174268C9.98214 0.100439 6.02142 0.100439 4.69999 0.174268C3.42142 0.234033 2.28571 0.522314 1.34642 1.44341C0.407136 2.3645 0.11785 3.48247 0.0535644 4.74458C-0.0214355 6.04536 -0.0214355 9.94419 0.0535644 11.245C0.114279 12.5071 0.407136 13.625 1.34642 14.5461C2.28571 15.4672 3.41785 15.7555 4.69999 15.8188C6.02142 15.8926 9.98214 15.8926 11.3036 15.8188C12.5857 15.759 13.7214 15.4708 14.6571 14.5461C15.5928 13.625 15.8857 12.5071 15.95 11.245C16.025 9.94419 16.025 6.04888 15.95 4.7481V4.7481ZM14.2428 12.6407C13.9643 13.3297 13.425 13.8606 12.7214 14.1383C11.6679 14.5497 9.16785 14.4547 8.00356 14.4547C6.83928 14.4547 4.33571 14.5461 3.28571 14.1383C2.58571 13.8641 2.04642 13.3333 1.76428 12.6407C1.34642 11.6036 1.44285 9.14263 1.44285 7.99653C1.44285 6.85044 1.34999 4.38599 1.76428 3.35239C2.04285 2.66333 2.58214 2.13247 3.28571 1.85474C4.33928 1.44341 6.83928 1.53833 8.00356 1.53833C9.16785 1.53833 11.6714 1.44692 12.7214 1.85474C13.4214 2.12895 13.9607 2.65981 14.2428 3.35239C14.6607 4.3895 14.5643 6.85044 14.5643 7.99653C14.5643 9.14263 14.6607 11.6071 14.2428 12.6407Z"/>
</symbol><symbol viewBox="0 0 14 16" id="ln" xmlns="http://www.w3.org/2000/svg">
<path d="M3.13375 14.0002H0.23125V4.6533H3.13375V14.0002ZM1.68094 3.3783C0.752813 3.3783 0 2.60955 0 1.68143C6.64312e-09 1.23561 0.177098 0.80806 0.492335 0.492823C0.807572 0.177587 1.23513 0.000488281 1.68094 0.000488281C2.12675 0.000488281 2.5543 0.177587 2.86954 0.492823C3.18478 0.80806 3.36188 1.23561 3.36188 1.68143C3.36188 2.60955 2.60875 3.3783 1.68094 3.3783ZM13.9969 14.0002H11.1006V9.45018C11.1006 8.3658 11.0787 6.97518 9.59156 6.97518C8.0825 6.97518 7.85125 8.1533 7.85125 9.37205V14.0002H4.95188V4.6533H7.73562V5.9283H7.77625C8.16375 5.19393 9.11031 4.41893 10.5225 4.41893C13.46 4.41893 14 6.3533 14 8.8658V14.0002H13.9969Z"/>
</symbol><symbol viewBox="0 0 29 29" id="paper-plane" xmlns="http://www.w3.org/2000/svg">
<g clip-path="url(#jclip0_774_8506)">
<path d="M28.213 0.985414C28.7851 1.36365 29.0853 2.01746 28.9777 2.67128L25.3527 25.1494C25.2677 25.6736 24.9335 26.1328 24.4464 26.3922C23.9593 26.6516 23.3759 26.684 22.8605 26.4787L15.7068 23.6419L13.4355 27.6674C13.141 28.1915 12.5123 28.4563 11.9062 28.3104C11.3002 28.1645 10.8753 27.6458 10.8753 27.0514V21.8642C10.8753 21.5778 10.9773 21.2968 11.1642 21.0699L20.5269 9.58223C20.6685 9.19859 20.1587 8.80954 19.7906 9.12834L9.65191 17.8765L7.83941 19.438C7.31832 19.8865 6.57632 20.0108 5.92496 19.7514L1.1105 17.8386C0.476128 17.5847 0.0456594 17.0119 0.00601093 16.3527C-0.0336375 15.6935 0.317534 15.0721 0.917925 14.7425L26.2929 0.909767C26.899 0.580159 27.6466 0.61258 28.2187 0.985414H28.213Z"/>
</g>
<defs>
<clipPath id="jclip0_774_8506">
<rect width="29" height="27.6654" transform="translate(0 0.682861)"/>
</clipPath>
</defs>
</symbol><symbol viewBox="0 0 17 15" id="twi" xmlns="http://www.w3.org/2000/svg">
<path d="M15.2525 4.03741C15.2633 4.18842 15.2633 4.33946 15.2633 4.49047C15.2633 9.0964 11.7576 14.4035 5.35025 14.4035C3.37626 14.4035 1.54252 13.8318 0 12.8395C0.280467 12.8718 0.550109 12.8826 0.841367 12.8826C2.47015 12.8826 3.96953 12.3325 5.16687 11.394C3.63514 11.3617 2.35151 10.3585 1.90925 8.97777C2.125 9.01011 2.34072 9.03169 2.56727 9.03169C2.88007 9.03169 3.19291 8.98853 3.48414 8.91306C1.8877 8.58942 0.690326 7.18716 0.690326 5.49363V5.4505C1.15414 5.70939 1.69353 5.87118 2.26518 5.89273C1.32673 5.26709 0.711908 4.19921 0.711908 2.99108C0.711908 2.34388 0.884465 1.75061 1.18651 1.23284C2.90162 3.34705 5.47968 4.72773 8.37051 4.87878C8.31659 4.61989 8.28421 4.35025 8.28421 4.08057C8.28421 2.1605 9.83752 0.596436 11.7683 0.596436C12.7715 0.596436 13.6776 1.01712 14.314 1.69669C15.1014 1.54568 15.8565 1.25442 16.5253 0.85532C16.2664 1.66435 15.7163 2.34392 14.9936 2.77536C15.6948 2.69989 16.3743 2.50568 16.9999 2.23604C16.5254 2.92637 15.9321 3.54119 15.2525 4.03741V4.03741Z"/>
</symbol></svg>